<svg xmlns="http://www.w3.org/2000/svg" width="345" height="394" viewBox="0 0 345 394" font-family="IBM Plex Sans, system-ui, sans-serif"><g transform="translate(6,6)"><line x1="166.0" y1="64.0" x2="166.0" y2="114.0" stroke="#2C6FA6" stroke-width="1.4"/><line x1="166.0" y1="166.0" x2="166.0" y2="216.0" stroke="#2C6FA6" stroke-width="1.4"/><line x1="166.0" y1="268.0" x2="166.0" y2="318.0" stroke="#2C6FA6" stroke-width="1.4"/><path d="M0,0 L-7,-3 L-7,3 Z" fill="#2C6FA6" transform="translate(166.2,114.0) rotate(90.0)"/><path d="M0,0 L-7,-3 L-7,3 Z" fill="#2C6FA6" transform="translate(166.2,216.0) rotate(90.0)"/><path d="M0,0 L-7,-3 L-7,3 Z" fill="#2C6FA6" transform="translate(166.2,318.0) rotate(90.0)"/><rect x="36.4" y="12.0" width="259.7" height="52.0" rx="8" fill="#EEF6FD" stroke="#2C6FA6" stroke-width="1.5"/><text x="166.2" y="34.0" font-size="15" font-weight="600" fill="#15243A" text-anchor="middle">Application</text><text x="166.2" y="48.0" font-size="10.5" font-weight="400" fill="#5B6B82" text-anchor="middle">C code generated from the Termina program</text><rect x="12.0" y="114.0" width="308.4" height="52.0" rx="8" fill="#FBF2E6" stroke="#A35D17" stroke-width="1.5"/><text x="166.2" y="136.0" font-size="15" font-weight="600" fill="#15243A" text-anchor="middle">OSAL</text><text x="166.2" y="150.0" font-size="10.5" font-weight="400" fill="#5B6B82" text-anchor="middle">Tasks · Queues · Timers · Locks · System services</text><rect x="60.7" y="216.0" width="211.0" height="52.0" rx="8" fill="#EEF6FD" stroke="#2C6FA6" stroke-width="1.5"/><text x="166.2" y="238.0" font-size="15" font-weight="600" fill="#15243A" text-anchor="middle">Operating system</text><text x="166.2" y="252.0" font-size="10.5" font-weight="400" fill="#5B6B82" text-anchor="middle">RTEMS · FreeRTOS · POSIX emulator</text><rect x="75.9" y="318.0" width="180.5" height="52.0" rx="8" fill="#E3E9F4" stroke="#0B2140" stroke-width="1.5"/><text x="166.2" y="340.0" font-size="15" font-weight="600" fill="#15243A" text-anchor="middle">Hardware</text><text x="166.2" y="354.0" font-size="10.5" font-weight="400" fill="#5B6B82" text-anchor="middle">Target processor and devices</text></g></svg>