<svg xmlns="http://www.w3.org/2000/svg" width="805" height="321" viewBox="0 0 805 321" font-family="IBM Plex Sans, system-ui, sans-serif"><g transform="translate(6,6)"><line x1="192.8" y1="39.0" x2="352.5" y2="39.0" stroke="#2C6FA6" stroke-width="1.4"/><line x1="466.5" y1="50.0" x2="770.6" y2="50.0" stroke="#2C6FA6" stroke-width="1.4"/><line x1="12.0" y1="89.0" x2="770.6" y2="89.0" stroke="#2C6FA6" stroke-width="1.4"/><line x1="12.0" y1="158.0" x2="80.9" y2="158.0" stroke="#2C6FA6" stroke-width="1.4"/><line x1="194.9" y1="158.0" x2="352.5" y2="158.0" stroke="#2C6FA6" stroke-width="1.4"/><line x1="203.8" y1="242.0" x2="352.5" y2="242.0" stroke="#2C6FA6" stroke-width="1.4"/><line x1="12.0" y1="88.8" x2="12.0" y2="157.8" stroke="#2C6FA6" stroke-width="1.4"/><line x1="770.5" y1="49.8" x2="770.5" y2="88.8" stroke="#2C6FA6" stroke-width="1.4"/><line x1="466.5" y1="28.0" x2="780.6" y2="28.0" stroke="#2C6FA6" stroke-width="1.4" stroke-dasharray="5,4"/><line x1="312.5" y1="100.0" x2="780.6" y2="100.0" stroke="#2C6FA6" stroke-width="1.4" stroke-dasharray="5,4"/><line x1="312.5" y1="121.0" x2="486.5" y2="121.0" stroke="#2C6FA6" stroke-width="1.4" stroke-dasharray="5,4"/><line x1="466.5" y1="158.0" x2="476.5" y2="158.0" stroke="#2C6FA6" stroke-width="1.4" stroke-dasharray="5,4"/><line x1="486.5" y1="220.0" x2="516.5" y2="220.0" stroke="#2C6FA6" stroke-width="1.4" stroke-dasharray="5,4"/><line x1="466.5" y1="242.0" x2="516.5" y2="242.0" stroke="#2C6FA6" stroke-width="1.4" stroke-dasharray="5,4"/><line x1="476.5" y1="157.8" x2="476.5" y2="241.8" stroke="#2C6FA6" stroke-width="1.4" stroke-dasharray="5,4"/><line x1="780.5" y1="28.2" x2="780.5" y2="99.8" stroke="#2C6FA6" stroke-width="1.4" stroke-dasharray="5,4"/><line x1="312.5" y1="99.8" x2="312.5" y2="120.8" stroke="#2C6FA6" stroke-width="1.4" stroke-dasharray="5,4"/><line x1="486.5" y1="120.8" x2="486.5" y2="219.8" stroke="#2C6FA6" stroke-width="1.4" stroke-dasharray="5,4"/><path d="M0,0 L-7,-3 L-7,3 Z" fill="#2C6FA6" transform="translate(352.5,241.8) rotate(0.0)"/><rect x="251.8" y="246.8" width="52.7" height="13.0" fill="#fff" opacity="0.92"/><text x="278.2" y="257.8" font-size="12" fill="#15243A" text-anchor="middle">TimeVal</text><path d="M0,0 L-7,-3 L-7,3 Z" fill="#2C6FA6" transform="translate(352.5,39.0) rotate(0.0)"/><rect x="265.7" y="44.0" width="24.9" height="13.0" fill="#fff" opacity="0.92"/><text x="278.2" y="55.0" font-size="12" fill="#15243A" text-anchor="middle">u32</text><path d="M0,0 L-7,-3 L-7,3 Z" fill="#2C6FA6" transform="translate(80.9,157.8) rotate(0.0)"/><rect x="608.1" y="54.8" width="11.0" height="13.0" fill="#fff" opacity="0.92"/><text x="613.5" y="65.8" font-size="12" fill="#15243A" text-anchor="middle">T</text><path d="M0,0 L-7,-3 L-7,3 Z" fill="#2C6FA6" transform="translate(352.5,157.8) rotate(0.0)"/><rect x="272.7" y="162.8" width="11.0" height="13.0" fill="#fff" opacity="0.92"/><text x="278.2" y="173.8" font-size="12" fill="#15243A" text-anchor="middle">T</text><path d="M0,0 L-7,-3 L-7,3 Z" fill="#2C6FA6" transform="translate(516.5,241.8) rotate(0.0)"/><path d="M0,0 L-7,-3 L-7,3 Z" fill="#2C6FA6" transform="translate(466.5,241.8) rotate(180.0)"/><path d="M0,0 L-7,-3 L-7,3 Z" fill="#2C6FA6" transform="translate(516.5,241.8) rotate(0.0)"/><path d="M0,0 L-7,-3 L-7,3 Z" fill="#2C6FA6" transform="translate(466.5,157.8) rotate(180.0)"/><path d="M0,0 L-7,-3 L-7,3 Z" fill="#2C6FA6" transform="translate(516.5,219.8) rotate(0.0)"/><path d="M0,0 L-7,-3 L-7,3 Z" fill="#2C6FA6" transform="translate(466.5,28.2) rotate(180.0)"/><rect x="72.0" y="215.8" width="131.8" height="52.0" rx="8" fill="#E3E9F4" stroke="#0B2140" stroke-width="1.5"/><text x="137.9" y="244.8" font-size="15" font-weight="600" fill="#15243A" text-anchor="middle">Periodic timer</text><rect x="100.8" y="13.0" width="92.0" height="52.0" rx="8" fill="#E3E9F4" stroke="#0B2140" stroke-width="1.5"/><text x="146.8" y="42.0" font-size="15" font-weight="600" fill="#15243A" text-anchor="middle">Interrupt</text><rect x="363.5" y="214.8" width="92.0" height="54.0" rx="8" fill="#EEF6FD" stroke="#2C6FA6" stroke-width="1.5"/><text x="409.5" y="233.8" font-size="15" font-weight="600" fill="#15243A" text-anchor="middle">Task</text><rect x="352.5" y="236.3" width="11" height="11" fill="#fff" stroke="#2C6FA6" stroke-width="1.3"/><path d="M361.4,241.8 L356.0,244.8 L356.0,238.8 Z" fill="#2C6FA6"/><rect x="455.5" y="236.3" width="11" height="11" fill="#fff" stroke="#2C6FA6" stroke-width="1.3"/><rect x="363.5" y="12.0" width="92.0" height="54.0" rx="8" fill="#E7F3E9" stroke="#3E8E4E" stroke-width="1.5"/><text x="409.5" y="31.0" font-size="15" font-weight="600" fill="#15243A" text-anchor="middle">Handler</text><rect x="352.5" y="33.5" width="11" height="11" fill="#fff" stroke="#3E8E4E" stroke-width="1.3"/><path d="M361.4,39.0 L356.0,42.0 L356.0,36.0 Z" fill="#3E8E4E"/><rect x="455.5" y="44.3" width="11" height="11" fill="#fff" stroke="#3E8E4E" stroke-width="1.3"/><path d="M464.4,49.8 L459.0,52.8 L459.0,46.8 Z" fill="#3E8E4E"/><rect x="455.5" y="22.7" width="11" height="11" fill="#fff" stroke="#3E8E4E" stroke-width="1.3"/><rect x="91.9" y="130.8" width="92.0" height="54.0" rx="8" fill="#FBF2E6" stroke="#A35D17" stroke-width="1.5"/><text x="137.9" y="149.8" font-size="15" font-weight="600" fill="#15243A" text-anchor="middle">Channel</text><rect x="80.9" y="152.3" width="11" height="11" fill="#fff" stroke="#A35D17" stroke-width="1.3"/><path d="M89.8,157.8 L84.4,160.8 L84.4,154.8 Z" fill="#A35D17"/><rect x="183.9" y="152.3" width="11" height="11" fill="#fff" stroke="#A35D17" stroke-width="1.3"/><path d="M192.8,157.8 L187.4,160.8 L187.4,154.8 Z" fill="#A35D17"/><rect x="363.5" y="130.8" width="92.0" height="54.0" rx="8" fill="#EEF6FD" stroke="#2C6FA6" stroke-width="1.5"/><text x="409.5" y="149.8" font-size="15" font-weight="600" fill="#15243A" text-anchor="middle">Task</text><rect x="352.5" y="152.3" width="11" height="11" fill="#fff" stroke="#2C6FA6" stroke-width="1.3"/><path d="M361.4,157.8 L356.0,160.8 L356.0,154.8 Z" fill="#2C6FA6"/><rect x="455.5" y="152.3" width="11" height="11" fill="#fff" stroke="#2C6FA6" stroke-width="1.3"/><rect x="527.5" y="203.8" width="183.0" height="54.0" rx="8" fill="#E4F2F0" stroke="#0E8077" stroke-width="1.5"/><text x="619.0" y="222.8" font-size="15" font-weight="600" fill="#15243A" text-anchor="middle">Resource</text><rect x="516.5" y="236.3" width="11" height="11" fill="#fff" stroke="#0E8077" stroke-width="1.3"/><text x="545.7" y="246.8" font-size="10.5" fill="#5B6B82" text-anchor="middle">IData</text><rect x="516.5" y="214.3" width="11" height="11" fill="#fff" stroke="#0E8077" stroke-width="1.3"/><text x="554.9" y="224.8" font-size="10.5" fill="#5B6B82" text-anchor="middle">IControl</text></g><g transform="translate(6,295)"><rect x="81.5" y="1.5" width="11" height="11" fill="#fff" stroke="#5B6B82" stroke-width="1.2"/><path d="M90.4,7.0 L85.0,10.0 L85.0,4.0 Z" fill="#5B6B82"/><text x="109.0" y="11" font-size="11" fill="#15243A">event / message port</text><rect x="262.1" y="1.5" width="11" height="11" fill="#fff" stroke="#5B6B82" stroke-width="1.2"/><text x="289.6" y="11" font-size="11" fill="#15243A">resource access port</text><line x1="440.2" y1="7" x2="456.2" y2="7" stroke="#2C6FA6" stroke-width="1.4"/><path d="M0,0 L-7,-3 L-7,3 Z" fill="#2C6FA6" transform="translate(460.2,7.0) rotate(0.0)"/><text x="470.2" y="11" font-size="11" fill="#15243A">event / message</text><line x1="592.9" y1="7" x2="604.9" y2="7" stroke="#2C6FA6" stroke-width="1.4" stroke-dasharray="5,4"/><path d="M0,0 L-7,-3 L-7,3 Z" fill="#2C6FA6" transform="translate(608.9,7.0) rotate(0.0)"/><path d="M0,0 L-7,-3 L-7,3 Z" fill="#2C6FA6" transform="translate(588.9,7.0) rotate(180.0)"/><text x="618.9" y="11" font-size="11" fill="#15243A">resource access</text></g></svg>