<?xml version="1.0" encoding="UTF-8" standalone="no"?>
<svg
   xmlns:dc="http://purl.org/dc/elements/1.1/"
   xmlns:cc="http://creativecommons.org/ns#"
   xmlns:rdf="http://www.w3.org/1999/02/22-rdf-syntax-ns#"
   xmlns:svg="http://www.w3.org/2000/svg"
   xmlns="http://www.w3.org/2000/svg"
   xmlns:sodipodi="http://sodipodi.sourceforge.net/DTD/sodipodi-0.dtd"
   xmlns:inkscape="http://www.inkscape.org/namespaces/inkscape"
   width="1538.5"
   height="1870.5"
   version="1.1"
   id="svg843"
   sodipodi:docname="logo_termina.svg"
   inkscape:version="1.0.2-2 (e86c870879, 2021-01-15)"
   inkscape:export-filename="C:\Users\elsam\Desktop\TERMINA\logo\idea1.3.3.2.png"
   inkscape:export-xdpi="96"
   inkscape:export-ydpi="96">
  <metadata
     id="metadata849">
    <rdf:RDF>
      <cc:Work
         rdf:about="">
        <dc:format>image/svg+xml</dc:format>
        <dc:type
           rdf:resource="http://purl.org/dc/dcmitype/StillImage" />
        <dc:title></dc:title>
      </cc:Work>
    </rdf:RDF>
  </metadata>
  <defs
     id="defs847">
    <clipPath
       clipPathUnits="userSpaceOnUse"
       id="clipPath874">
      <rect
         style="fill:#edf8ff;fill-opacity:0.729927;stroke:none;stroke-width:2.88294;stroke-opacity:1"
         id="rect876"
         width="2069.4534"
         height="2069.4534"
         x="-195.14777"
         y="33.198673" />
    </clipPath>
  </defs>
  <sodipodi:namedview
     pagecolor="#ffffff"
     bordercolor="#666666"
     borderopacity="1"
     objecttolerance="10"
     gridtolerance="10"
     guidetolerance="10"
     inkscape:pageopacity="0"
     inkscape:pageshadow="2"
     inkscape:window-width="1920"
     inkscape:window-height="991"
     id="namedview845"
     showgrid="false"
     inkscape:zoom="0.41986485"
     inkscape:cx="660.08369"
     inkscape:cy="719.29303"
     inkscape:window-x="-9"
     inkscape:window-y="-9"
     inkscape:window-maximized="1"
     inkscape:current-layer="svg843"
     inkscape:document-rotation="0" />
  <g
     aria-label="T"
     id="text911"
     style="font-style:normal;font-variant:normal;font-weight:normal;font-stretch:normal;font-size:1320.41px;line-height:1.25;font-family:'Lucida Sans Typewriter';-inkscape-font-specification:'Lucida Sans Typewriter';fill:#87c7f2;fill-opacity:1;stroke:none;stroke-width:1.10034"
     transform="matrix(0.89769627,0,0,0.84877933,-30.15354,-39.379233)"
     clip-path="url(#clipPath874)"
     inkscape:export-xdpi="96"
     inkscape:export-ydpi="96">
    <g
       id="g856"
       transform="matrix(0.55689932,0,0,0.55689932,318.71055,107.29642)">
      <g
         id="g883">
        <path
           style="opacity:0.997;fill:#87c7f2;fill-opacity:1;fill-rule:evenodd;stroke:none;stroke-width:2.22781px;stroke-linecap:butt;stroke-linejoin:miter;stroke-opacity:0"
           d="m 814.14056,576.73532 c 173.35552,55.07504 671.98414,216.76565 827.39564,260.94545 l 0.279,0.27829 -1.6713,82.99053 c -1.1112,55.32706 -3.8993,126.80341 -8.3543,214.43901 -4.4555,87.6269 -7.9835,148.8961 -10.5826,183.802 -2.5996,34.9046 -5.5694,64.7966 -8.9121,89.6742 -3.3416,24.879 -7.2404,48.4578 -11.697,70.7367 -4.4552,22.2788 -9.2837,44.7428 -14.4811,67.3967 -5.1994,22.6479 -9.8401,42.5137 -13.925,59.5947 -4.0837,17.0801 -8.9112,35.4615 -14.4802,55.1443 -5.5702,19.6774 -8.912,31.5592 -10.0253,35.6434 -1.1145,4.0847 -2.7859,9.2817 -5.0127,15.597 -2.2292,6.3118 -4.8284,14.1086 -7.7985,23.3914 -2.9729,9.2831 -7.6119,22.6507 -13.9243,40.1031 -6.3131,17.4498 -11.5115,31.3768 -15.5959,41.7734 -4.0848,10.3983 -9.0979,22.8355 -15.0383,37.3189 -5.9408,14.4799 -13.5534,31.9314 -22.8357,52.3564 -9.2826,20.4214 -14.8535,32.3039 -16.7096,35.6423 -1.8555,3.3453 -8.6336,15.5063 -20.3353,36.4854 -11.6936,20.9797 -18.7477,33.4178 -21.1618,37.3152 -2.4156,3.9009 -8.169,13.7418 -17.2644,29.5223 -9.0987,15.7817 -15.0399,25.8077 -17.8243,30.0763 -2.7852,4.272 -7.0553,10.9555 -12.8112,20.0531 -5.7584,9.0957 -10.3968,16.1516 -13.9222,21.1642 -3.5298,5.0131 -7.6146,10.9551 -12.2552,17.8239 -4.6432,6.8691 -9.0982,13.1821 -13.3658,18.937 -4.2726,5.756 -7.6144,10.582 -10.0278,14.4823 -2.4143,3.8979 -5.9411,8.9106 -10.5827,15.0407 -4.6412,6.1225 -9.0969,12.251 -13.367,18.3776 -4.271,6.1272 -8.9125,12.4391 -13.9257,18.9367 -5.0121,6.4977 -9.2823,12.0678 -12.8098,16.7102 -3.5274,4.6409 -11.0464,13.4593 -22.5582,26.4569 -11.5108,12.9959 -25.0632,27.8479 -40.6589,44.5592 -15.5968,16.708 -29.3333,31.0034 -41.2169,42.8863 -11.8815,11.8841 -19.7724,19.402 -23.672,22.559 -3.8992,3.154 -12.996,11.1384 -27.2928,23.9492 -14.2947,12.8103 -23.021,20.6077 -26.1782,23.3921 -3.1553,2.7856 -10.9533,9.6555 -23.3917,20.6089 -12.44,10.953 -20.6086,18.0091 -24.5078,21.1653 -3.898,3.1554 -8.354,6.8675 -13.3683,11.1402 -5.0131,4.2689 -11.9749,10.1176 -20.88532,17.5432 -8.9124,7.4269 -15.6889,12.9047 -20.33,16.432 -4.641,3.5275 -9.0982,6.6848 -13.36854,9.4695 -4.2693,2.7831 -12.0671,7.6135 -23.3925,14.4799 -11.3255,6.8697 -18.7511,11.5123 -22.2792,13.9248 -3.5284,2.4142 -7.5191,4.9207 -11.97532,7.5201 -4.45573,2.5995 -9.09734,5.5696 -13.92447,8.9113 -4.82713,3.3426 -8.35467,5.7563 -10.58255,7.2405 -2.22798,1.4853 -7.05526,4.0845 -14.48162,7.798 -7.42643,3.7128 -16.33808,7.9849 -26.73508,12.8083 -10.39692,4.8303 -17.6378,7.9852 -21.72239,9.4712 l -6.12665,2.2276 -6.68368,-1.6714 c -4.45595,-1.1117 -9.28308,-2.9697 -14.48161,-5.5697 -5.19852,-2.5998 -13.92448,-7.0541 -26.17812,-13.3664 -12.25346,-6.3125 -19.30875,-10.2123 -21.16534,-11.6976 -1.85661,-1.4842 -6.59093,-4.7348 -14.2031,-9.7468 -7.61194,-5.0117 -13.36741,-8.7264 -17.2664,-11.1375 -3.89888,-2.4157 -11.51086,-7.057 -22.83613,-13.9268 -11.32529,-6.8695 -19.1231,-11.6928 -23.39321,-14.4824 -4.27013,-2.7831 -8.72614,-5.9431 -13.36758,-9.468 -4.64154,-3.5268 -9.93285,-7.7027 -15.87397,-12.5312 -5.94106,-4.8273 -13.83183,-11.4188 -23.67179,-19.7706 -9.84001,-8.3576 -18.38036,-15.5982 -25.62109,-21.7257 -7.24075,-6.127 -17.8232,-15.4087 -31.74771,-27.849 -13.92468,-12.4384 -22.83632,-20.2361 -26.73526,-23.3929 -3.89893,-3.1568 -12.43921,-10.5842 -25.62109,-22.2783 -13.18201,-11.6967 -20.51561,-18.2886 -22.00083,-19.7732 l -19.77287,-19.7742 c -11.69661,-11.6955 -19.86566,-20.0508 -24.50714,-25.0621 -4.64148,-5.0136 -14.85284,-16.1532 -30.63396,-33.4191 -15.78117,-17.2665 -25.24982,-27.8499 -28.40603,-31.7476 -3.15625,-3.8991 -7.79788,-9.6549 -13.92457,-17.2672 -6.12671,-7.6123 -10.95409,-13.7383 -14.48167,-18.3805 -3.52731,-4.6413 -7.05499,-9.4685 -10.58257,-14.4799 -3.52748,-5.0145 -7.24066,-10.2131 -11.13952,-15.5975 -3.89904,-5.3836 -7.42663,-10.211 -10.58274,-14.4811 -3.1562,-4.2704 -5.84819,-8.0763 -8.07614,-11.4187 -2.22789,-3.3409 -5.29126,-7.7038 -9.19014,-13.0887 -3.899,-5.3839 -7.24079,-10.2105 -10.0257,-14.481 -2.78501,-4.2681 -6.49816,-9.8396 -11.13962,-16.7102 -4.6416,-6.8693 -8.16899,-12.2536 -10.58272,-16.1528 -2.41351,-3.8982 -6.31246,-10.0241 -11.69639,-18.38 -5.38424,-8.3542 -8.91187,-14.1093 -10.58299,-17.2659 -1.67084,-3.157 -6.3124,-11.139 -13.92442,-23.9526 -7.61204,-12.8074 -12.62482,-21.1625 -15.03847,-25.0622 -2.41366,-3.8972 -8.44751,-14.5735 -18.102,-32.0267 -9.65427,-17.4521 -16.89488,-30.6327 -21.7221,-39.5446 -4.82717,-8.9108 -9.09744,-17.2667 -12.81059,-25.0641 -3.71314,-7.7975 -8.91168,-19.4938 -15.59522,-35.0875 -6.68404,-15.5982 -10.02586,-23.5803 -10.02586,-23.9528 0,-0.3703 -3.34194,-8.9108 -10.02561,-25.6218 -6.68399,-16.709 -11.88253,-29.8898 -15.59563,-39.5439 -3.71319,-9.6561 -8.91177,-24.321 -15.595451,-44.0027 -6.68375,-19.6796 -13.36757,-40.6585 -20.05131,-62.9388 -6.68389,-22.2793 -14.110297,-49.3863 -22.279257,-81.3186 -8.16899,-31.9332 -13.92446,-55.6981 -17.26642,-71.2936 -3.34169,-15.5959 -7.9833,-38.2473 -13.9245,-67.9525 -5.94112,-29.7051 -9.46869,-49.2001 -10.58266,-58.4822 -1.11391,-9.2837 -3.527555,-37.6901 -7.240767,-85.2181 -3.713206,-47.5295 -6.1268,-83.3615 -7.240787,-107.4973 -1.113937,-24.1366 -2.413564,-49.7575 -3.898842,-76.8632 -1.485274,-27.1043 -3.527555,-71.4797 -6.126797,-133.1192 -2.59924,-61.63887 -3.89886,-105.26903 -3.89886,-130.89013 v -38.43172 l 3.620369,-1.94937 C 141.6963,793.3985 627.20821,637.06857 806.89989,576.73532 Z"
           id="path2"
           sodipodi:nodetypes="cccssssssssssssssssssssssssssssssssssssssssssssssssscsssssssssssssssssssssssssssssssssssssssssssssssssssscccc"
           inkscape:export-xdpi="96"
           inkscape:export-ydpi="96" />
        <path
           style="fill:#1e2b33;fill-opacity:1;fill-rule:evenodd;stroke:none;stroke-width:1.75412px;stroke-linecap:butt;stroke-linejoin:miter;stroke-opacity:1"
           d="m 814.02084,791.93336 c 136.53363,43.37566 529.25126,170.72376 651.64946,205.51798 l 0.2246,0.2203 -1.3167,65.36256 c -0.8773,43.5758 -3.0714,99.8715 -6.5823,168.8901 -3.5115,69.0191 -6.2848,117.2723 -8.3347,144.7626 -2.0446,27.4899 -4.3844,51.0318 -7.0192,70.6256 -2.633,19.593 -5.7071,38.1644 -9.2149,55.7117 -3.5083,17.5484 -7.309,35.2393 -11.4049,53.0796 -4.092,17.8407 -7.7487,33.4853 -10.9655,46.9374 -3.2179,13.4525 -7.0175,27.9317 -11.4069,43.4319 -4.3886,15.5004 -7.019,24.8556 -7.8958,28.0691 -0.8746,3.2223 -2.1909,7.3134 -3.946,12.2892 -1.7559,4.97 -3.8029,11.1133 -6.1435,18.4247 -2.3413,7.3075 -5.996,17.8384 -10.9677,31.584 -4.9695,13.7432 -9.0639,24.7098 -12.282,32.8971 -3.2144,8.189 -7.1633,17.9878 -11.8408,29.3937 -4.6853,11.4072 -10.6757,25.1509 -17.9881,41.2346 -7.3119,16.0829 -11.6987,25.4431 -13.1628,28.079 -1.4552,2.6232 -6.7965,12.2008 -16.0095,28.7304 -9.2096,16.5211 -14.7668,26.3166 -16.6676,29.3905 -1.9017,3.0703 -6.434,10.8283 -13.6018,23.2507 -7.1587,12.4296 -11.8433,20.3216 -14.0359,23.6903 -2.1933,3.3637 -5.5558,8.6281 -10.0894,15.7833 -4.532,7.1733 -8.1874,12.7279 -10.9653,16.6778 -2.7809,3.9459 -6.0002,8.6232 -9.6535,14.0369 -3.6542,5.4077 -7.1624,10.3822 -10.5258,14.9122 -3.364,4.5352 -5.9953,8.3311 -7.8971,11.4075 -1.8989,3.0688 -4.6844,7.022 -8.3358,11.8443 -3.6578,4.8229 -7.1642,9.6498 -10.5293,14.4757 -3.3642,4.8245 -7.0156,9.7977 -10.9679,14.9197 -3.9446,5.1133 -7.3072,9.502 -10.0852,13.1557 -2.7809,3.6599 -8.7024,10.6016 -17.7698,20.837 -9.0655,10.2363 -19.74,21.9417 -32.022,35.0934 -12.2839,13.1599 -23.1044,24.4265 -32.4645,33.7781 -9.3561,9.3595 -15.5698,15.2828 -18.6393,17.7645 -3.0701,2.4866 -10.2386,8.7791 -21.4977,18.8665 -11.2591,10.0901 -18.1296,16.2284 -20.6182,18.4224 -2.4842,2.193 -8.6259,7.6068 -18.4234,16.2372 -9.79847,8.6203 -16.23007,14.1787 -19.30057,16.6615 -3.0708,2.4912 -6.5799,5.4133 -10.5276,8.7768 -3.9485,3.3619 -9.43246,7.966 -16.45086,13.8195 -7.0191,5.8453 -12.3559,10.1619 -16.0123,12.9422 -3.6547,2.7761 -7.165,5.2639 -10.5268,7.4564 -3.3639,2.194 -9.5056,5.9942 -18.4264,11.4026 -8.91856,5.4116 -14.76811,9.0661 -17.54597,10.9686 -2.77826,1.904 -5.92186,3.8716 -9.4313,5.9188 -3.50954,2.0504 -7.16466,4.3898 -10.96713,7.0185 -3.80201,2.6342 -6.58015,4.5365 -8.3348,5.7025 -1.75458,1.1735 -5.55724,3.2166 -11.40548,6.1448 -5.84905,2.9246 -12.8679,6.2879 -21.05638,10.0877 -8.18863,3.8052 -13.89146,6.2875 -17.10849,7.4577 l -4.82534,1.7572 -5.26383,-1.3168 c -3.50951,-0.8749 -7.31128,-2.3394 -11.40538,-4.3859 -4.0946,-2.0488 -10.9674,-5.5575 -20.61799,-10.5304 -9.65091,-4.9682 -15.20772,-8.0408 -16.66964,-9.2143 -1.46254,-1.166 -5.19097,-3.7273 -11.18633,-7.6737 -5.99544,-3.945 -10.52819,-6.8734 -13.59918,-8.7722 -3.07073,-1.8958 -9.06564,-5.5584 -17.98543,-10.9655 -8.91982,-5.414 -15.06122,-9.2158 -18.42402,-11.4056 -3.36331,-2.194 -6.8729,-4.6798 -10.52857,-7.4616 -3.65557,-2.7789 -7.82299,-6.0679 -12.50247,-9.8688 -4.67903,-3.8056 -10.89316,-8.995 -18.64339,-15.5729 -7.7499,-6.5736 -14.47652,-12.2856 -20.17936,-17.1095 -5.70211,-4.8265 -14.03737,-12.1357 -25.0042,-21.932 -10.96729,-9.7999 -17.98586,-15.9414 -21.0566,-18.4248 -3.0707,-2.4853 -9.79704,-8.3352 -20.17874,-17.5495 -10.38192,-9.211 -16.15787,-14.4033 -17.32786,-15.5704 l -15.57279,-15.5701 c -9.21245,-9.2147 -15.64559,-15.7938 -19.30171,-19.7435 -3.65574,-3.9464 -11.69798,-12.7223 -24.12737,-26.3185 -12.42904,-13.5994 -19.88627,-21.9354 -22.37227,-25.0058 -2.48559,-3.0723 -6.14143,-7.6068 -10.96693,-13.6001 -4.82542,-5.9936 -8.62756,-10.8191 -11.40589,-14.4736 -2.77811,-3.6571 -5.55646,-7.4586 -8.33441,-11.41 -2.77897,-3.9497 -5.7027,-8.042 -8.77364,-12.2798 -3.07056,-4.2422 -5.84898,-8.0455 -8.3348,-11.4056 -2.48591,-3.3616 -4.60567,-6.36 -6.36064,-8.9965 -1.75392,-2.6275 -4.16741,-6.066 -7.23867,-10.3027 -3.07057,-4.2417 -5.7021,-8.0443 -7.89531,-11.4092 -2.19327,-3.3639 -5.11841,-7.7475 -8.77399,-13.1597 -3.65568,-5.4079 -6.43396,-9.652 -8.33485,-12.722 -1.90093,-3.0704 -4.97162,-7.8953 -9.21169,-14.477 -4.24071,-6.5808 -7.01914,-11.1123 -8.33553,-13.5947 -1.316,-2.4891 -4.97141,-8.7793 -10.96644,-18.8633 -5.99542,-10.0912 -9.94348,-16.6721 -11.84425,-19.746 -1.90096,-3.066 -6.65336,-11.4763 -14.25681,-25.2194 -7.60408,-13.7453 -13.30688,-24.1277 -17.10821,-31.1473 -3.80225,-7.0214 -7.16544,-13.5975 -10.08984,-19.739 -2.92443,-6.1483 -7.01882,-15.3529 -12.28312,-27.6353 -5.26393,-12.2835 -7.89572,-18.5726 -7.89572,-18.8681 0,-0.2866 -2.63232,-7.0167 -7.89654,-20.1776 -5.26395,-13.1576 -9.35815,-23.5436 -12.28295,-31.1458 -2.92433,-7.6017 -7.01827,-19.1542 -12.2826,-34.6516 -5.26428,-15.5022 -10.52817,-32.0247 -15.79238,-49.5724 -5.2641,-17.5468 -11.11303,-38.8957 -17.54704,-64.0455 -6.43398,-25.1533 -10.967,-43.8701 -13.59903,-56.1529 -2.63202,-12.2828 -6.28789,-30.1212 -10.9669,-53.5171 -4.67894,-23.3968 -7.45716,-38.7515 -8.3349,-46.0618 -0.87688,-7.3112 -2.77813,-29.6832 -5.70262,-67.1173 -2.92477,-37.4336 -4.82537,-65.6563 -5.70264,-84.6636 -0.87759,-19.0108 -1.90092,-39.1894 -3.0708,-60.5373 -1.16992,-21.3503 -2.77856,-56.2966 -4.8254,-104.8439 -2.04728,-48.5468 -3.07031,-82.9092 -3.07031,-103.0891 v -30.27066 l 2.85117,-1.5306 C 284.40773,962.57572 666.79376,839.45084 808.31823,791.93336 Z"
           id="path2-8"
           sodipodi:nodetypes="cccssssssssssssssssssssssssssssssssssssssssssssssssscsssssssssssssssssssssssssssssssssssssssssssssssssssscccc" />
        <path
           d="M 716.30903,2069.8407 V 1285.3863 H 429.63212 v -175.4602 h 767.90338 v 175.4602 H 896.84866 v 784.4544 z"
           style="font-style:normal;font-variant:normal;font-weight:normal;font-stretch:normal;font-family:'Lucida Sans Typewriter';-inkscape-font-specification:'Lucida Sans Typewriter';fill:#87c7f2;fill-opacity:1;stroke-width:1.10034"
           id="path926"
           sodipodi:nodetypes="ccccccccc" />
      </g>
    </g>
  </g>
  <rect
     style="fill:#ffffff;fill-opacity:0.729927;stroke:#000000;stroke-width:2.588;stroke-opacity:0"
     id="rect905"
     width="19.053751"
     height="352.49438"
     x="1633.8591"
     y="364.40298" />
</svg>
