<svg xmlns="http://www.w3.org/2000/svg" width="1014" height="166" viewBox="0 0 1014 166" font-family="IBM Plex Sans, system-ui, sans-serif"><g transform="translate(6,6)"><line x1="293.0" y1="38.0" x2="497.4" y2="38.0" stroke="#2C6FA6" stroke-width="1.4"/><line x1="759.7" y1="38.0" x2="887.5" y2="38.0" stroke="#2C6FA6" stroke-width="1.4"/><line x1="303.0" y1="112.0" x2="847.5" y2="112.0" stroke="#2C6FA6" stroke-width="1.4"/><line x1="12.0" y1="123.0" x2="989.5" y2="123.0" stroke="#2C6FA6" stroke-width="1.4"/><line x1="12.0" y1="46.5" x2="22.0" y2="46.5" stroke="#2C6FA6" stroke-width="1.4"/><line x1="979.5" y1="46.5" x2="989.5" y2="46.5" stroke="#2C6FA6" stroke-width="1.4"/><line x1="293.0" y1="55.5" x2="303.0" y2="55.5" stroke="#2C6FA6" stroke-width="1.4"/><line x1="847.5" y1="55.5" x2="887.5" y2="55.5" stroke="#2C6FA6" stroke-width="1.4"/><line x1="12.0" y1="46.7" x2="12.0" y2="123.0" stroke="#2C6FA6" stroke-width="1.4"/><line x1="303.0" y1="55.3" x2="303.0" y2="112.0" stroke="#2C6FA6" stroke-width="1.4"/><line x1="989.5" y1="46.7" x2="989.5" y2="123.0" stroke="#2C6FA6" stroke-width="1.4"/><line x1="847.5" y1="55.3" x2="847.5" y2="112.0" stroke="#2C6FA6" stroke-width="1.4"/><path d="M0,0 L-7,-3 L-7,3 Z" fill="#2C6FA6" transform="translate(22.0,46.7) rotate(0.0)"/><rect x="567.4" y="128.0" width="122.3" height="13.0" fill="#fff" opacity="0.92"/><text x="628.5" y="139.0" font-size="12" fill="#15243A" text-anchor="middle">alloc → Some(box)</text><path d="M0,0 L-7,-3 L-7,3 Z" fill="#2C6FA6" transform="translate(497.4,38.0) rotate(0.0)"/><rect x="341.0" y="20.0" width="108.4" height="13.0" fill="#fff" opacity="0.92"/><text x="395.2" y="31.0" font-size="12" fill="#15243A" text-anchor="middle">send (transfer)</text><path d="M0,0 L-7,-3 L-7,3 Z" fill="#2C6FA6" transform="translate(887.5,55.3) rotate(0.0)"/><rect x="612.6" y="94.0" width="31.8" height="13.0" fill="#fff" opacity="0.92"/><text x="628.5" y="105.0" font-size="12" fill="#15243A" text-anchor="middle">free</text><path d="M0,0 L-7,-3 L-7,3 Z" fill="#2C6FA6" transform="translate(887.5,38.0) rotate(0.0)"/><rect x="807.7" y="20.0" width="31.8" height="13.0" fill="#fff" opacity="0.92"/><text x="823.6" y="31.0" font-size="12" fill="#15243A" text-anchor="middle">free</text><rect x="887.5" y="20.7" width="92.0" height="52.0" rx="8" fill="#EEF6FD" stroke="#2C6FA6" stroke-width="1.5"/><text x="933.5" y="49.7" font-size="15" font-weight="600" fill="#15243A" text-anchor="middle">Pool</text><rect x="22.0" y="20.7" width="271.0" height="52.0" rx="8" fill="#EEF6FD" stroke="#2C6FA6" stroke-width="1.5"/><text x="157.5" y="49.7" font-size="15" font-weight="600" fill="#15243A" text-anchor="middle">Owned by the allocating entity</text><rect x="497.4" y="12.0" width="262.3" height="52.0" rx="8" fill="#EEF6FD" stroke="#2C6FA6" stroke-width="1.5"/><text x="628.5" y="41.0" font-size="15" font-weight="600" fill="#15243A" text-anchor="middle">Owned by the receiving entity</text></g></svg>