<svg xmlns="http://www.w3.org/2000/svg" width="925" height="179" viewBox="0 0 925 179" font-family="IBM Plex Sans, system-ui, sans-serif"><g transform="translate(6,6)"><line x1="533.5" y1="38.0" x2="543.5" y2="38.0" stroke="#2C6FA6" stroke-width="1.4"/><line x1="299.5" y1="120.0" x2="349.5" y2="120.0" stroke="#2C6FA6" stroke-width="1.4"/><line x1="533.5" y1="120.0" x2="583.5" y2="120.0" stroke="#2C6FA6" stroke-width="1.4"/><line x1="126.4" y1="128.5" x2="176.4" y2="128.5" stroke="#2C6FA6" stroke-width="1.4"/><line x1="126.4" y1="46.5" x2="136.4" y2="46.5" stroke="#2C6FA6" stroke-width="1.4"/><line x1="136.4" y1="111.5" x2="176.4" y2="111.5" stroke="#2C6FA6" stroke-width="1.4"/><line x1="675.5" y1="111.5" x2="725.5" y2="111.5" stroke="#2C6FA6" stroke-width="1.4"/><line x1="543.5" y1="102.5" x2="583.5" y2="102.5" stroke="#2C6FA6" stroke-width="1.4"/><line x1="136.5" y1="46.7" x2="136.5" y2="111.3" stroke="#2C6FA6" stroke-width="1.4"/><line x1="543.5" y1="38.0" x2="543.5" y2="102.7" stroke="#2C6FA6" stroke-width="1.4"/><path d="M0,0 L-7,-3 L-7,3 Z" fill="#2C6FA6" transform="translate(176.4,128.7) rotate(-0.0)"/><path d="M0,0 L-7,-3 L-7,3 Z" fill="#2C6FA6" transform="translate(176.4,111.3) rotate(-0.0)"/><path d="M0,0 L-7,-3 L-7,3 Z" fill="#2C6FA6" transform="translate(349.5,120.0) rotate(0.0)"/><path d="M0,0 L-7,-3 L-7,3 Z" fill="#2C6FA6" transform="translate(583.5,120.0) rotate(0.0)"/><path d="M0,0 L-7,-3 L-7,3 Z" fill="#2C6FA6" transform="translate(583.5,102.7) rotate(0.0)"/><path d="M0,0 L-7,-3 L-7,3 Z" fill="#2C6FA6" transform="translate(725.5,111.3) rotate(0.0)"/><rect x="12.0" y="102.7" width="114.4" height="52.0" rx="8" fill="#EEF6FD" stroke="#2C6FA6" stroke-width="1.5"/><text x="69.2" y="124.7" font-size="15" font-weight="600" fill="#15243A" text-anchor="middle">.fin sources</text><text x="69.2" y="138.7" font-size="10.5" font-weight="400" fill="#5B6B82" text-anchor="middle">app/ + src/</text><rect x="12.0" y="20.7" width="114.4" height="52.0" rx="8" fill="#EEF6FD" stroke="#2C6FA6" stroke-width="1.5"/><text x="69.2" y="49.7" font-size="15" font-weight="600" fill="#15243A" text-anchor="middle">termina.yaml</text><rect x="176.4" y="94.0" width="123.1" height="52.0" rx="8" fill="#E3E9F4" stroke="#0B2140" stroke-width="1.5"/><text x="237.9" y="123.0" font-size="15" font-weight="600" fill="#15243A" text-anchor="middle">termina build</text><rect x="349.5" y="94.0" width="184.0" height="52.0" rx="8" fill="#FBF2E6" stroke="#A35D17" stroke-width="1.5"/><text x="441.5" y="116.0" font-size="15" font-weight="600" fill="#15243A" text-anchor="middle">C sources + Makefile</text><text x="441.5" y="130.0" font-size="10.5" font-weight="400" fill="#5B6B82" text-anchor="middle">output/</text><rect x="583.5" y="85.3" width="92.0" height="52.0" rx="8" fill="#E3E9F4" stroke="#0B2140" stroke-width="1.5"/><text x="629.5" y="114.3" font-size="15" font-weight="600" fill="#15243A" text-anchor="middle">make</text><rect x="384.3" y="12.0" width="149.2" height="52.0" rx="8" fill="#FBF2E6" stroke="#A35D17" stroke-width="1.5"/><text x="458.9" y="41.0" font-size="15" font-weight="600" fill="#15243A" text-anchor="middle">OSAL + toolchain</text><rect x="725.5" y="85.3" width="175.3" height="52.0" rx="8" fill="#EEF6FD" stroke="#2C6FA6" stroke-width="1.5"/><text x="813.1" y="114.3" font-size="15" font-weight="600" fill="#15243A" text-anchor="middle">executable or image</text></g></svg>