<svg xmlns="http://www.w3.org/2000/svg" width="1123" height="856" viewBox="0 0 1123 856" font-family="IBM Plex Sans, system-ui, sans-serif"><g transform="translate(6,6)"><line x1="241.5" y1="57.0" x2="706.9" y2="57.0" stroke="#2C6FA6" stroke-width="1.4"/><line x1="878.0" y1="57.0" x2="1088.1" y2="57.0" stroke="#2C6FA6" stroke-width="1.4"/><line x1="52.0" y1="133.0" x2="1088.1" y2="133.0" stroke="#2C6FA6" stroke-width="1.4"/><line x1="52.0" y1="210.0" x2="302.5" y2="210.0" stroke="#2C6FA6" stroke-width="1.4"/><line x1="612.9" y1="210.0" x2="912.7" y2="210.0" stroke="#2C6FA6" stroke-width="1.4"/><line x1="252.5" y1="285.0" x2="902.7" y2="285.0" stroke="#2C6FA6" stroke-width="1.4"/><line x1="22.0" y1="331.0" x2="902.7" y2="331.0" stroke="#2C6FA6" stroke-width="1.4"/><line x1="32.0" y1="342.0" x2="912.7" y2="342.0" stroke="#2C6FA6" stroke-width="1.4"/><line x1="32.0" y1="511.0" x2="406.9" y2="511.0" stroke="#2C6FA6" stroke-width="1.4"/><line x1="22.0" y1="639.0" x2="125.3" y2="639.0" stroke="#2C6FA6" stroke-width="1.4"/><line x1="22.0" y1="331.0" x2="22.0" y2="639.0" stroke="#2C6FA6" stroke-width="1.4"/><line x1="32.0" y1="342.0" x2="32.0" y2="511.2" stroke="#2C6FA6" stroke-width="1.4"/><line x1="52.0" y1="133.0" x2="52.0" y2="210.0" stroke="#2C6FA6" stroke-width="1.4"/><line x1="1088.0" y1="57.0" x2="1088.0" y2="133.0" stroke="#2C6FA6" stroke-width="1.4"/><line x1="902.5" y1="285.0" x2="902.5" y2="331.0" stroke="#2C6FA6" stroke-width="1.4"/><line x1="912.5" y1="210.0" x2="912.5" y2="342.0" stroke="#2C6FA6" stroke-width="1.4"/><line x1="878.0" y1="32.0" x2="1098.1" y2="32.0" stroke="#2C6FA6" stroke-width="1.4" stroke-dasharray="5,4"/><line x1="12.0" y1="122.0" x2="1078.1" y2="122.0" stroke="#2C6FA6" stroke-width="1.4" stroke-dasharray="5,4"/><line x1="42.0" y1="144.0" x2="1098.1" y2="144.0" stroke="#2C6FA6" stroke-width="1.4" stroke-dasharray="5,4"/><line x1="42.0" y1="408.0" x2="662.9" y2="408.0" stroke="#2C6FA6" stroke-width="1.4" stroke-dasharray="5,4"/><line x1="560.7" y1="528.0" x2="709.6" y2="528.0" stroke="#2C6FA6" stroke-width="1.4" stroke-dasharray="5,4"/><line x1="846.0" y1="528.0" x2="942.7" y2="528.0" stroke="#2C6FA6" stroke-width="1.4" stroke-dasharray="5,4"/><line x1="12.0" y1="583.0" x2="902.7" y2="583.0" stroke="#2C6FA6" stroke-width="1.4" stroke-dasharray="5,4"/><line x1="573.8" y1="614.0" x2="622.9" y2="614.0" stroke="#2C6FA6" stroke-width="1.4" stroke-dasharray="5,4"/><line x1="239.3" y1="639.0" x2="419.9" y2="639.0" stroke="#2C6FA6" stroke-width="1.4" stroke-dasharray="5,4"/><line x1="573.8" y1="639.0" x2="662.9" y2="639.0" stroke="#2C6FA6" stroke-width="1.4" stroke-dasharray="5,4"/><line x1="622.9" y1="759.0" x2="662.9" y2="759.0" stroke="#2C6FA6" stroke-width="1.4" stroke-dasharray="5,4"/><line x1="573.8" y1="664.5" x2="622.9" y2="664.5" stroke="#2C6FA6" stroke-width="1.4" stroke-dasharray="5,4"/><line x1="560.7" y1="494.5" x2="622.9" y2="494.5" stroke="#2C6FA6" stroke-width="1.4" stroke-dasharray="5,4"/><line x1="878.0" y1="82.5" x2="1078.1" y2="82.5" stroke="#2C6FA6" stroke-width="1.4" stroke-dasharray="5,4"/><line x1="12.0" y1="122.0" x2="12.0" y2="583.0" stroke="#2C6FA6" stroke-width="1.4" stroke-dasharray="5,4"/><line x1="42.0" y1="144.0" x2="42.0" y2="408.0" stroke="#2C6FA6" stroke-width="1.4" stroke-dasharray="5,4"/><line x1="623.0" y1="408.0" x2="623.0" y2="494.3" stroke="#2C6FA6" stroke-width="1.4" stroke-dasharray="5,4"/><line x1="623.0" y1="528.0" x2="623.0" y2="613.8" stroke="#2C6FA6" stroke-width="1.4" stroke-dasharray="5,4"/><line x1="623.0" y1="664.3" x2="623.0" y2="759.0" stroke="#2C6FA6" stroke-width="1.4" stroke-dasharray="5,4"/><line x1="1078.0" y1="82.3" x2="1078.0" y2="122.0" stroke="#2C6FA6" stroke-width="1.4" stroke-dasharray="5,4"/><line x1="1098.0" y1="31.8" x2="1098.0" y2="144.0" stroke="#2C6FA6" stroke-width="1.4" stroke-dasharray="5,4"/><line x1="902.5" y1="528.0" x2="902.5" y2="583.0" stroke="#2C6FA6" stroke-width="1.4" stroke-dasharray="5,4"/><path d="M0,0 L-7,-3 L-7,3 Z" fill="#2C6FA6" transform="translate(125.3,639.0) rotate(0.0)"/><rect x="431.3" y="290.0" width="52.7" height="13.0" fill="#fff" opacity="0.92"/><text x="457.7" y="301.0" font-size="12" fill="#15243A" text-anchor="middle">TimeVal</text><path d="M0,0 L-7,-3 L-7,3 Z" fill="#2C6FA6" transform="translate(706.9,57.0) rotate(0.0)"/><rect x="445.3" y="39.0" width="24.9" height="13.0" fill="#fff" opacity="0.92"/><text x="457.7" y="50.0" font-size="12" fill="#15243A" text-anchor="middle">u32</text><path d="M0,0 L-7,-3 L-7,3 Z" fill="#2C6FA6" transform="translate(302.5,210.0) rotate(0.0)"/><rect x="124.6" y="215.0" width="115.4" height="13.0" fill="#fff" opacity="0.92"/><text x="182.3" y="226.0" font-size="12" fill="#15243A" text-anchor="middle">box TCDescriptor</text><path d="M0,0 L-7,-3 L-7,3 Z" fill="#2C6FA6" transform="translate(406.9,511.2) rotate(0.0)"/><rect x="124.6" y="516.2" width="115.4" height="13.0" fill="#fff" opacity="0.92"/><text x="182.3" y="527.2" font-size="12" fill="#15243A" text-anchor="middle">box TCDescriptor</text><path d="M0,0 L-7,-3 L-7,3 Z" fill="#2C6FA6" transform="translate(419.9,639.0) rotate(0.0)"/><path d="M0,0 L-7,-3 L-7,3 Z" fill="#2C6FA6" transform="translate(239.3,639.0) rotate(180.0)"/><path d="M0,0 L-7,-3 L-7,3 Z" fill="#2C6FA6" transform="translate(662.9,639.0) rotate(0.0)"/><path d="M0,0 L-7,-3 L-7,3 Z" fill="#2C6FA6" transform="translate(573.8,639.0) rotate(180.0)"/><path d="M0,0 L-7,-3 L-7,3 Z" fill="#2C6FA6" transform="translate(662.9,759.0) rotate(0.0)"/><path d="M0,0 L-7,-3 L-7,3 Z" fill="#2C6FA6" transform="translate(573.8,664.3) rotate(180.0)"/><path d="M0,0 L-7,-3 L-7,3 Z" fill="#2C6FA6" transform="translate(709.6,528.0) rotate(0.0)"/><path d="M0,0 L-7,-3 L-7,3 Z" fill="#2C6FA6" transform="translate(573.8,613.8) rotate(180.0)"/><path d="M0,0 L-7,-3 L-7,3 Z" fill="#2C6FA6" transform="translate(709.6,528.0) rotate(0.0)"/><path d="M0,0 L-7,-3 L-7,3 Z" fill="#2C6FA6" transform="translate(560.7,528.0) rotate(180.0)"/><path d="M0,0 L-7,-3 L-7,3 Z" fill="#2C6FA6" transform="translate(662.9,408.0) rotate(0.0)"/><path d="M0,0 L-7,-3 L-7,3 Z" fill="#2C6FA6" transform="translate(560.7,494.3) rotate(180.0)"/><path d="M0,0 L-7,-3 L-7,3 Z" fill="#2C6FA6" transform="translate(662.9,408.0) rotate(0.0)"/><path d="M0,0 L-7,-3 L-7,3 Z" fill="#2C6FA6" transform="translate(878.0,31.8) rotate(180.0)"/><path d="M0,0 L-7,-3 L-7,3 Z" fill="#2C6FA6" transform="translate(942.7,528.0) rotate(0.0)"/><path d="M0,0 L-7,-3 L-7,3 Z" fill="#2C6FA6" transform="translate(878.0,82.3) rotate(180.0)"/><path d="M0,0 L-7,-3 L-7,3 Z" fill="#2C6FA6" transform="translate(942.7,528.0) rotate(0.0)"/><path d="M0,0 L-7,-3 L-7,3 Z" fill="#2C6FA6" transform="translate(846.0,528.0) rotate(180.0)"/><rect x="112.0" y="259.0" width="140.5" height="52.0" rx="8" fill="#E3E9F4" stroke="#0B2140" stroke-width="1.5"/><text x="182.3" y="279.0" font-size="15" font-weight="600" fill="#15243A" text-anchor="middle">hk_timer</text><text x="182.3" y="297.0" font-size="15" font-weight="400" fill="#15243A" text-anchor="middle">: PeriodicTimer</text><rect x="135.8" y="31.0" width="105.7" height="52.0" rx="8" fill="#E3E9F4" stroke="#0B2140" stroke-width="1.5"/><text x="188.7" y="51.0" font-size="15" font-weight="600" fill="#15243A" text-anchor="middle">kbd_irq</text><text x="188.7" y="69.0" font-size="15" font-weight="400" fill="#15243A" text-anchor="middle">: Interrupt</text><rect x="136.3" y="594.0" width="92.0" height="90.0" rx="8" fill="#EEF6FD" stroke="#2C6FA6" stroke-width="1.5"/><text x="182.3" y="613.0" font-size="15" font-weight="600" fill="#15243A" text-anchor="middle">hk_task</text><text x="182.3" y="631.0" font-size="15" font-weight="400" fill="#15243A" text-anchor="middle">: CHKTask</text><rect x="125.3" y="633.5" width="11" height="11" fill="#fff" stroke="#2C6FA6" stroke-width="1.3"/><path d="M134.2,639.0 L128.8,642.0 L128.8,636.0 Z" fill="#2C6FA6"/><rect x="228.3" y="633.5" width="11" height="11" fill="#fff" stroke="#2C6FA6" stroke-width="1.3"/><rect x="417.9" y="466.2" width="131.8" height="90.0" rx="8" fill="#EEF6FD" stroke="#2C6FA6" stroke-width="1.5"/><text x="483.8" y="485.2" font-size="15" font-weight="600" fill="#15243A" text-anchor="middle">manager_task</text><text x="483.8" y="503.2" font-size="15" font-weight="400" fill="#15243A" text-anchor="middle">: CManagerTask</text><rect x="406.9" y="505.7" width="11" height="11" fill="#fff" stroke="#2C6FA6" stroke-width="1.3"/><path d="M415.8,511.2 L410.4,514.2 L410.4,508.2 Z" fill="#2C6FA6"/><rect x="549.7" y="522.5" width="11" height="11" fill="#fff" stroke="#2C6FA6" stroke-width="1.3"/><rect x="549.7" y="488.8" width="11" height="11" fill="#fff" stroke="#2C6FA6" stroke-width="1.3"/><rect x="717.9" y="12.0" width="149.2" height="90.0" rx="8" fill="#E7F3E9" stroke="#3E8E4E" stroke-width="1.5"/><text x="792.5" y="31.0" font-size="15" font-weight="600" fill="#15243A" text-anchor="middle">kbd_handler</text><text x="792.5" y="49.0" font-size="15" font-weight="400" fill="#15243A" text-anchor="middle">: CKbdIRQHandler</text><rect x="706.9" y="51.5" width="11" height="11" fill="#fff" stroke="#3E8E4E" stroke-width="1.3"/><path d="M715.8,57.0 L710.4,60.0 L710.4,54.0 Z" fill="#3E8E4E"/><rect x="867.0" y="51.5" width="11" height="11" fill="#fff" stroke="#3E8E4E" stroke-width="1.3"/><path d="M875.9,57.0 L870.5,60.0 L870.5,54.0 Z" fill="#3E8E4E"/><rect x="867.0" y="26.3" width="11" height="11" fill="#fff" stroke="#3E8E4E" stroke-width="1.3"/><rect x="867.0" y="76.8" width="11" height="11" fill="#fff" stroke="#3E8E4E" stroke-width="1.3"/><rect x="430.9" y="594.0" width="131.8" height="90.0" rx="8" fill="#E4F2F0" stroke="#0E8077" stroke-width="1.5"/><text x="496.8" y="613.0" font-size="15" font-weight="600" fill="#15243A" text-anchor="middle">hk_subsystem</text><text x="496.8" y="631.0" font-size="15" font-weight="400" fill="#15243A" text-anchor="middle">: CHKSubsystem</text><rect x="419.9" y="633.5" width="11" height="11" fill="#fff" stroke="#0E8077" stroke-width="1.3"/><rect x="562.8" y="633.5" width="11" height="11" fill="#fff" stroke="#0E8077" stroke-width="1.3"/><rect x="562.8" y="658.8" width="11" height="11" fill="#fff" stroke="#0E8077" stroke-width="1.3"/><rect x="562.8" y="608.3" width="11" height="11" fill="#fff" stroke="#0E8077" stroke-width="1.3"/><rect x="673.9" y="594.0" width="157.9" height="90.0" rx="8" fill="#E4F2F0" stroke="#0E8077" stroke-width="1.5"/><text x="752.8" y="613.0" font-size="15" font-weight="600" fill="#15243A" text-anchor="middle">sys_data_pool</text><text x="752.8" y="631.0" font-size="15" font-weight="400" fill="#15243A" text-anchor="middle">: CSystemDataPool</text><rect x="662.9" y="633.5" width="11" height="11" fill="#fff" stroke="#0E8077" stroke-width="1.3"/><rect x="673.9" y="714.0" width="157.9" height="90.0" rx="8" fill="#E4F2F0" stroke="#0E8077" stroke-width="1.5"/><text x="752.8" y="733.0" font-size="15" font-weight="600" fill="#15243A" text-anchor="middle">emu_sensor_array</text><text x="752.8" y="751.0" font-size="15" font-weight="400" fill="#15243A" text-anchor="middle">: CEmuSensorArray</text><rect x="662.9" y="753.5" width="11" height="11" fill="#fff" stroke="#0E8077" stroke-width="1.3"/><rect x="720.6" y="483.0" width="114.4" height="90.0" rx="8" fill="#E4F2F0" stroke="#0E8077" stroke-width="1.5"/><text x="777.8" y="502.0" font-size="15" font-weight="600" fill="#15243A" text-anchor="middle">tm_channel</text><text x="777.8" y="520.0" font-size="15" font-weight="400" fill="#15243A" text-anchor="middle">: CTMChannel</text><rect x="709.6" y="522.5" width="11" height="11" fill="#fff" stroke="#0E8077" stroke-width="1.3"/><rect x="835.0" y="522.5" width="11" height="11" fill="#fff" stroke="#0E8077" stroke-width="1.3"/><rect x="953.7" y="483.0" width="114.4" height="90.0" rx="8" fill="#E4F2F0" stroke="#0E8077" stroke-width="1.5"/><text x="1010.9" y="502.0" font-size="15" font-weight="600" fill="#15243A" text-anchor="middle">system_entry</text><text x="1010.9" y="520.0" font-size="15" font-weight="400" fill="#15243A" text-anchor="middle">: SystemAPI</text><rect x="942.7" y="522.5" width="11" height="11" fill="#fff" stroke="#0E8077" stroke-width="1.3"/><rect x="673.9" y="363.0" width="218.8" height="90.0" rx="8" fill="#EDE7F6" stroke="#5E48A6" stroke-width="1.5"/><text x="783.3" y="382.0" font-size="15" font-weight="600" fill="#15243A" text-anchor="middle">tc_pool</text><text x="783.3" y="400.0" font-size="15" font-weight="400" fill="#15243A" text-anchor="middle">: Pool&lt;TCDescriptor; 10&gt;</text><rect x="662.9" y="402.5" width="11" height="11" fill="#fff" stroke="#5E48A6" stroke-width="1.3"/><rect x="313.5" y="165.0" width="288.4" height="90.0" rx="8" fill="#FBF2E6" stroke="#A35D17" stroke-width="1.5"/><text x="457.7" y="184.0" font-size="15" font-weight="600" fill="#15243A" text-anchor="middle">tc_channel</text><text x="457.7" y="202.0" font-size="15" font-weight="400" fill="#15243A" text-anchor="middle">: MsgQueue&lt;box TCDescriptor; 10&gt;</text><rect x="302.5" y="204.5" width="11" height="11" fill="#fff" stroke="#A35D17" stroke-width="1.3"/><path d="M311.4,210.0 L306.0,213.0 L306.0,207.0 Z" fill="#A35D17"/><rect x="601.9" y="204.5" width="11" height="11" fill="#fff" stroke="#A35D17" stroke-width="1.3"/><path d="M610.8,210.0 L605.4,213.0 L605.4,207.0 Z" fill="#A35D17"/></g><g transform="translate(6,830)"><rect x="240.3" y="1.5" width="11" height="11" fill="#fff" stroke="#5B6B82" stroke-width="1.2"/><path d="M249.2,7.0 L243.8,10.0 L243.8,4.0 Z" fill="#5B6B82"/><text x="267.8" y="11" font-size="11" fill="#15243A">event / message port</text><rect x="420.9" y="1.5" width="11" height="11" fill="#fff" stroke="#5B6B82" stroke-width="1.2"/><text x="448.4" y="11" font-size="11" fill="#15243A">resource access port</text><line x1="599.0" y1="7" x2="615.0" y2="7" stroke="#2C6FA6" stroke-width="1.4"/><path d="M0,0 L-7,-3 L-7,3 Z" fill="#2C6FA6" transform="translate(619.0,7.0) rotate(0.0)"/><text x="629.0" y="11" font-size="11" fill="#15243A">event / message</text><line x1="751.7" y1="7" x2="763.7" y2="7" stroke="#2C6FA6" stroke-width="1.4" stroke-dasharray="5,4"/><path d="M0,0 L-7,-3 L-7,3 Z" fill="#2C6FA6" transform="translate(767.7,7.0) rotate(0.0)"/><path d="M0,0 L-7,-3 L-7,3 Z" fill="#2C6FA6" transform="translate(747.7,7.0) rotate(180.0)"/><text x="777.7" y="11" font-size="11" fill="#15243A">resource access</text></g></svg>